# xmcd CD database file
#
# Track frame offsets:
#	182
#	22825
#	41900
#	65005
#	92837
#	118125
#	136520
#	152935
#
# Disc length: 2489 seconds
#
# Revision: 4
# Processed by: cddbd v1.4PL0 Copyright (c) Steve Scherf et al.
# Submitted via: CDex 1.50Beta7
#
DISCID=6709b708
DTITLE=Willie Colon and Hector Lavoe - Dejavu
DYEAR=1978
DGENRE=Salsa
TTITLE0=Todo Tiene Su Final
TTITLE1=Sigue Feliz
TTITLE2=Ausencia
TTITLE3=Aguanile
TTITLE4=No Me Llores Mas
TTITLE5=Soñando Despierto
TTITLE6=Que Bien Te Ves
TTITLE7=Te Estan Buscando
EXTD=YEAR: 1978
EXTT0=
EXTT1=
EXTT2=
EXTT3=
EXTT4=
EXTT5=
EXTT6=
EXTT7=
PLAYORDER=
